<?xml version="1.0" standalone="no"?>
<!DOCTYPE svg PUBLIC "-//W3C//DTD SVG 20010904//EN"
 "http://www.w3.org/TR/2001/REC-SVG-20010904/DTD/svg10.dtd">
<svg version="1.0" xmlns="http://www.w3.org/2000/svg"
 width="512.000000pt" height="512.000000pt" viewBox="0 0 512.000000 512.000000"
 preserveAspectRatio="xMidYMid meet">

<g transform="translate(0.000000,512.000000) scale(0.100000,-0.100000)"
fill="#000044" stroke="none">
<path d="M2321 5110 c-1340 -130 -2361 -1283 -2318 -2620 13 -389 97 -726 268
-1069 249 -502 647 -900 1150 -1150 815 -406 1779 -350 2539 147 297 194 579
482 771 788 74 116 184 342 234 478 51 138 110 376 131 531 23 157 26 521 6
660 -43 299 -120 554 -246 810 -378 768 -1090 1285 -1941 1411 -122 18 -466
26 -594 14z m399 -961 c207 -25 358 -71 545 -164 72 -36 173 -95 225 -132 122
-87 296 -261 383 -383 123 -174 220 -401 264 -615 25 -126 25 -443 0 -570 -45
-227 -118 -409 -247 -611 -11 -18 -9 -28 16 -79 23 -47 28 -72 28 -125 -2
-114 -51 -197 -149 -248 -43 -23 -63 -27 -135 -27 -76 0 -91 3 -139 30 -95 53
-141 133 -141 249 0 108 68 209 170 255 53 24 155 27 213 7 l38 -14 53 92
c206 351 255 749 140 1151 -130 454 -501 849 -938 999 -149 52 -240 67 -426
73 -195 5 -311 -7 -463 -51 -48 -15 -98 -26 -112 -26 -34 0 -59 39 -46 73 8
21 26 31 103 56 200 63 420 85 618 60z m-1160 -230 c21 -7 60 -28 86 -48 167
-126 135 -397 -56 -480 -71 -30 -121 -35 -191 -16 -74 18 -69 22 -137 -100
-84 -150 -151 -355 -173 -531 -14 -117 -6 -391 15 -484 101 -447 383 -807 796
-1019 347 -178 734 -214 1090 -102 85 27 106 26 126 -4 33 -51 3 -78 -126
-113 -161 -45 -249 -56 -435 -56 -269 -1 -452 42 -690 160 -492 243 -836 737
-895 1283 -37 335 51 708 234 990 l46 72 -18 27 c-72 103 -52 262 44 354 75
71 184 97 284 67z m1617 -742 c227 -227 413 -420 413 -430 0 -24 -36 -57 -62
-57 -28 0 -838 806 -838 833 0 21 43 67 62 67 7 0 198 -186 425 -413z m-160
-159 c178 -178 323 -326 323 -330 0 -11 -107 -81 -177 -117 -34 -17 -102 -43
-150 -57 -76 -23 -107 -27 -230 -28 l-143 -1 0 -111 c0 -165 -27 -287 -93
-419 -31 -63 -106 -175 -116 -175 -3 0 -152 146 -331 325 l-325 325 24 17
c188 139 369 198 581 191 l105 -3 0 135 c1 147 14 217 66 342 26 64 126 228
138 228 3 0 151 -145 328 -322z m-995 -996 c271 -271 408 -414 408 -428 0 -27
-19 -50 -49 -59 -21 -6 -68 37 -438 408 -371 370 -414 417 -408 438 9 30 32
49 59 49 14 0 157 -137 428 -408z"/>
</g>
</svg>
